{"title":"El Gringo 2012 VODRiP AC3-5 1 XviD-AXED","uid":7268363,"size":1483513100,"categoryP":"video","categoryS":"movies","magnet":"?xt=urn:btih:a411bb9ba51b0828c0368751352a0feaebc278c8&amp;dn=El+Gringo+2012+VODRiP+AC3-5+1+XviD-AXED&amp;tr=udp%3A%2F%2Ftracker.openbittorrent.com%3A80&amp;tr=udp%3A%2F%2Fopen.demonii.com%3A1337&amp;tr=udp%3A%2F%2Ftracker.coppersurfer.tk%3A6969&amp;tr=udp%3A%2F%2Fexodus.desync.com%3A6969","seeders":0,"leechers":1,"uploader":"HeroMaster","files":-1,"time":1336974928,"description":"El Gringo 2012 VODRiP AC3-5 1 XviD-AXED\n\n\nIMDB:  &lt;a href=&quot;\nhttp://www.imdb.com/title/tt1990216/&quot; rel=&quot;nofollow&quot; target=&quot;_NEW&quot;&gt;\nhttp://www.imdb.com/title/tt1990216/&lt;/a&gt;\n\nPLOT INFO:\nA man crossing into Mexico with a satchel of $2,000,000, and a bloody past, \nfinds himself under sudden attack in the sleepy town of El Fronteras.\n\nMEDIAINFO:\nGeneral\nFormat                                   : AVI\nFormat/Info                              : Audio Video Interleave\nFile size                                : 1.37 GiB\nDuration                                 : 1h 42mn\nOverall bit rate                         : 1 920 Kbps\n\nVideo\nID                                       : 0\nFormat                                   : MPEG-4 Visual\nFormat profile                           : Advanced Simple@L5\nFormat settings, BVOP                    : 2\nFormat settings, QPel                    : No\nFormat settings, GMC                     : No warppoints\nFormat settings, Matrix                  : Default (H.263)\nMuxing mode                              : Packed bitstream\nCodec ID                                 : XVID\nCodec ID/Hint                            : XviD\nDuration                                 : 1h 42mn\nBit rate                                 : 1 528 Kbps\nWidth                                    : 720 pixels\nHeight                                   : 304 pixels\nDisplay aspect ratio                     : 2.35:1\nFrame rate                               : 23.976 fps\nColor space                              : YUV\nChroma subsampling                       : 4:2:0\nBit depth                                : 8 bits\nScan type                                : Progressive\nCompression mode                         : Lossy\nBits/(Pixel*Frame)                       : 0.291\nStream size                              : 1.09 GiB (80%)\nWriting library                          : XviD 1.1.2 (UTC 2006-11-01)\n\nAudio\nID                                       : 1\nFormat                                   : AC-3\nFormat/Info                              : Audio Coding 3\nMode extension                           : CM (complete main)\nCodec ID                                 : 2000\nDuration                                 : 1h 42mn\nBit rate mode                            : Constant\nBit rate                                 : 384 Kbps\nChannel(s)                               : 6 channels\nChannel positions                        : Front: L C R, Side: L R, LFE\nSampling rate                            : 48.0 KHz\nBit depth                                : 16 bits\nCompression mode                         : Lossy\nStream size                              : 280 MiB (20%)\nAlignment                                : Aligned on interleaves\nInterleave, duration                     : 64 ms (1.53 video frames)\nInterleave, preload duration             : 192 ms\nTitle                                    : elgringo\n\n\nSOURCE: \n\nSD wmv Digital VOD Rental\n\nNOTES: \n\nThe new film starring Christian Slater and Scott Adkins, also from the After \nDark Action Lineup that hit Limited Theatres &amp; VOD on friday!\n\n\nPoster:\n\n &lt;a href=&quot;\nhttp://i.imgur.com/MURVd.jpg&quot; rel=&quot;nofollow&quot; target=&quot;_NEW&quot;&gt;\nhttp://i.imgur.com/MURVd.jpg&lt;/a&gt;\n\n\nScreenshots:\n\n &lt;a href=&quot;\nhttp://i.imgur.com/hN8Av.jpg&quot; rel=&quot;nofollow&quot; target=&quot;_NEW&quot;&gt;\nhttp://i.imgur.com/hN8Av.jpg&lt;/a&gt;\n\n\nENJOY!","torrent":{"xt":"urn:btih:a411bb9ba51b0828c0368751352a0feaebc278c8","amp;dn":"El+Gringo+2012+VODRiP+AC3-5+1+XviD-AXED","amp;tr":["udp%3A%2F%2Ftracker.openbittorrent.com%3A80","udp%3A%2F%2Fopen.demonii.com%3A1337","udp%3A%2F%2Ftracker.coppersurfer.tk%3A6969","udp%3A%2F%2Fexodus.desync.com%3A6969"],"infoHash":"a411bb9ba51b0828c0368751352a0feaebc278c8","infoHashBuffer":{"type":"Buffer","data":[164,17,187,155,165,27,8,40,192,54,135,81,53,42,15,234,235,194,120,200]},"announce":[],"urlList":[]}}